<?xml version="1.0" standalone="no"?><svg xmlns="http://www.w3.org/2000/svg" viewBox="0 0 1440 320"><path fill="#000b76" fill-opacity="1" d="M0,160L30,160C60,160,120,160,180,144C240,128,300,96,360,117.3C420,139,480,213,540,218.7C600,224,660,160,720,144C780,128,840,160,900,170.7C960,181,1020,171,1080,181.3C1140,192,1200,224,1260,213.3C1320,203,1380,149,1410,122.7L1440,96L1440,0L1410,0C1380,0,1320,0,1260,0C1200,0,1140,0,1080,0C1020,0,960,0,900,0C840,0,780,0,720,0C660,0,600,0,540,0C480,0,420,0,360,0C300,0,240,0,180,0C120,0,60,0,30,0L0,0Z"></path></svg>